<svg width="393" height="852" viewBox="0 0 393 852" fill="none" xmlns="http://www.w3.org/2000/svg">
<g clip-path="url(#clip0_273_1302)">
<path d="M61.6844 227.747C72.3998 210.12 91.1213 181.551 95.7822 162.852C95.879 162.464 95.7724 162.051 95.5197 161.741C-18.2106 22.2214 -259.828 182.837 -160.624 357.331C-73.4009 493.982 188.017 423.858 130.155 214.28C130.008 213.747 129.534 213.34 128.981 213.319C108.587 212.553 80.8399 224.198 63.1186 229.602C62.001 229.943 61.0775 228.745 61.6844 227.747Z" fill="white" fill-opacity="0.12"/>
<path d="M-164.971 359.802C-164.929 359.877 -164.885 359.95 -164.839 360.021C-119.672 430.783 -29.7571 447.611 40.973 420.306C76.4574 406.607 107.456 381.711 125.828 346.581C144.227 311.398 149.729 266.392 134.974 212.95L130.155 214.28L134.974 212.949C134.301 210.509 132.094 208.432 129.169 208.322C118.104 207.907 105.405 210.839 93.618 214.355C87.6686 216.13 81.8232 218.096 76.4086 219.936C75.8026 220.142 75.2026 220.346 74.609 220.548C73.4781 220.933 72.3701 221.31 71.2861 221.678C75.6953 214.536 80.7228 206.361 85.3567 198.162C91.9703 186.459 98.1246 174.128 100.634 164.062C101.143 162.02 100.559 160.009 99.3952 158.581C40.4021 86.2113 -51.593 92.1161 -115.312 137.715C-179.188 183.425 -216.082 269.902 -164.971 359.802Z" stroke="white" stroke-opacity="0.12" stroke-width="10" stroke-linecap="round" stroke-linejoin="round"/>
<path d="M386.684 565.021C397.4 547.395 416.121 518.826 420.782 500.127C420.879 499.739 420.772 499.325 420.52 499.015C306.789 359.496 65.1717 520.112 164.376 694.606C251.599 831.257 513.017 761.132 455.155 551.555C455.008 551.021 454.534 550.614 453.981 550.593C433.587 549.828 405.84 561.472 388.119 566.876C387.001 567.217 386.077 566.019 386.684 565.021Z" fill="white" fill-opacity="0.12"/>
<path d="M160.029 697.077C160.071 697.151 160.115 697.224 160.161 697.296C205.328 768.057 295.243 784.886 365.973 757.58C401.457 743.882 432.456 718.985 450.828 683.855C469.227 648.672 474.729 603.666 459.974 550.224L455.155 551.555L459.974 550.224C459.301 547.783 457.094 545.707 454.169 545.597C443.104 545.181 430.405 548.113 418.618 551.63C412.669 553.405 406.823 555.37 401.409 557.211C400.803 557.417 400.203 557.621 399.609 557.823C398.478 558.208 397.37 558.585 396.286 558.952C400.695 551.81 405.723 543.636 410.357 535.436C416.97 523.733 423.125 511.402 425.634 501.336C426.143 499.294 425.559 497.284 424.395 495.856C365.402 423.486 273.407 429.391 209.688 474.989C145.812 520.7 108.918 607.176 160.029 697.077Z" stroke="white" stroke-opacity="0.12" stroke-width="10" stroke-linecap="round" stroke-linejoin="round"/>
<path fill-rule="evenodd" clip-rule="evenodd" d="M363.989 38.9311C360.789 30.2689 351.173 25.8411 342.511 29.0413C333.848 32.2415 329.421 41.8579 332.621 50.5201C337.833 64.6297 339.921 74.6342 339.581 84.8577C339.402 90.2322 338.54 96.0403 336.774 102.882C319.07 90.3225 298.641 80.0075 274.103 70.2482C265.523 66.8354 255.8 71.0248 252.387 79.6055C248.975 88.1862 253.164 97.9089 261.745 101.322C285.402 110.731 303.744 120.208 318.982 131.275C310.318 137.831 303.167 141.873 296.161 144.173C286.137 147.464 274.586 147.753 256.307 143.272C247.338 141.073 238.285 146.561 236.086 155.53C233.887 164.499 239.375 173.552 248.344 175.751C270.227 181.116 288.597 181.854 306.593 175.945C319.902 171.575 331.908 163.9 344.221 153.997C361.444 173.149 376.049 198.243 392.662 234.881C396.476 243.291 406.385 247.017 414.796 243.204C423.206 239.39 426.932 229.481 423.119 221.071C404.72 180.496 387.315 150.386 364.435 126.638C369.602 111.828 372.576 98.8299 373.003 85.9696C373.543 69.7566 369.992 55.1774 363.989 38.9311Z" fill="#F5F5F5" fill-opacity="0.1"/>
</g>
<defs>
<clipPath id="clip0_273_1302">
<rect width="393" height="852" rx="24" fill="white"/>
</clipPath>
</defs>
</svg>
