<svg width="176" height="215" viewBox="0 0 176 215" fill="none" xmlns="http://www.w3.org/2000/svg">
<path d="M113.169 82.4467C116.361 77.1972 121.936 68.6889 123.324 63.12C123.353 63.0044 123.322 62.8812 123.246 62.7888C89.3752 21.2374 17.4169 69.0718 46.9617 121.039C72.9385 161.737 150.794 140.852 133.561 78.4362C133.517 78.2773 133.376 78.156 133.212 78.1499C127.138 77.9218 118.874 81.3898 113.597 82.9992C113.264 83.1007 112.989 82.7441 113.169 82.4467Z" fill="#FAFAFA" stroke="#FAFAFA" stroke-width="6.16651" stroke-linecap="round" stroke-linejoin="round"/>
<circle cx="88.1316" cy="97.1747" r="21.0076" transform="rotate(19.0241 88.1316 97.1747)" fill="#FBF4C8"/>
<path d="M42.1113 102.623C48.8709 154.099 126.086 152.02 133.105 106.782C133.105 87.5438 40.1312 87.5439 42.1113 102.623Z" fill="white" fill-opacity="0.48"/>
<path d="M70.6777 108.12C75.3784 110.173 77.9149 109.992 82.2381 106.972" stroke="black" stroke-width="3.27954" stroke-linecap="round"/>
<path d="M93.6348 106.972C98.3354 109.025 100.872 108.845 105.195 105.824" stroke="black" stroke-width="3.27954" stroke-linecap="round"/>
<path d="M76.417 124.271C80.8409 128.694 83.5973 129.793 89.2072 128.289" stroke="black" stroke-width="3.27954" stroke-linecap="round"/>
</svg>
