<svg width="55" height="54" viewBox="0 0 55 54" fill="none" xmlns="http://www.w3.org/2000/svg">
<path d="M40.5102 20.6562C42.1898 17.8933 45.1244 13.4152 45.855 10.4842C45.8701 10.4234 45.8534 10.3585 45.8138 10.3099C27.9869 -11.5593 -9.88585 13.6168 5.66406 40.9681C19.336 62.3878 60.3125 51.3959 51.2427 18.5453C51.2197 18.4618 51.1455 18.3979 51.0588 18.3947C47.862 18.2746 43.5128 20.0999 40.735 20.947C40.5599 21.0004 40.4151 20.8127 40.5102 20.6562Z" fill="#FAFAFA" stroke="#FAFAFA" stroke-width="3.24553" stroke-linecap="round" stroke-linejoin="round"/>
<circle cx="27.3324" cy="28.4079" r="11.0566" transform="rotate(19.0241 27.3324 28.4079)" fill="#F4E065"/>
<path d="M3.11114 31.2752C6.66884 58.3682 47.3082 57.2736 51.0027 33.4645C51.0027 23.339 2.06901 23.339 3.11114 31.2752Z" fill="#D9D9D9" fill-opacity="0.48"/>
<path d="M18.1459 34.1686C20.62 35.249 21.9549 35.1541 24.2304 33.5645" stroke="black" stroke-width="1.72608" stroke-linecap="round"/>
<path d="M30.2286 33.5641C32.7026 34.6445 34.0376 34.5496 36.313 32.96" stroke="black" stroke-width="1.72608" stroke-linecap="round"/>
<path d="M21.1666 42.6689C23.495 44.9963 24.9458 45.575 27.8983 44.7834" stroke="black" stroke-width="1.72608" stroke-linecap="round"/>
</svg>
