<svg width="60" height="75" viewBox="0 0 60 75" fill="none" xmlns="http://www.w3.org/2000/svg">
<path fill-rule="evenodd" clip-rule="evenodd" d="M37.3031 59.1048C35.9876 59.4339 34.7203 59.9598 33.6355 60.7734C32.56 61.58 31.687 62.626 31.0857 63.8286L30.8944 64.2111C30.5259 64.9482 29.4741 64.9482 29.1056 64.2111L28.9143 63.8286C28.313 62.6261 27.44 61.58 26.3645 60.7734C25.2797 59.9598 24.0124 59.4339 22.6969 59.1048C9.6579 55.8435 0 44.0496 0 30C0 13.4315 13.4315 0 30 0C46.5685 0 60 13.4315 60 30C60 44.0496 50.3421 55.8435 37.3031 59.1048ZM30 75C31.6569 75 33 73.6569 33 72C33 70.3431 31.6569 69 30 69C28.3431 69 27 70.3431 27 72C27 73.6569 28.3431 75 30 75Z" fill="#524A9F"/>
<path d="M24.04 15.5479C32.0029 26.128 33.4705 33.3347 31.6723 48.0791" stroke="#F5F5F5" stroke-width="5.60048" stroke-linecap="round"/>
<path d="M15.3862 24.7343C20.2728 29.6415 23.8673 30.0762 31.0285 28.8003C36.4437 24.6929 38.0736 21.9968 39.1141 16.678" stroke="#F5F5F5" stroke-width="5.60048" stroke-linecap="round"/>
</svg>
