<svg width="393" height="852" viewBox="0 0 393 852" fill="none" xmlns="http://www.w3.org/2000/svg">
<g clip-path="url(#clip0_274_1338)">
<path opacity="0.2" d="M310.107 322.951C324.417 299.411 349.42 261.257 355.644 236.285C355.773 235.767 355.631 235.215 355.294 234.801C203.409 48.4751 -119.267 262.975 13.2178 496.009C129.703 678.504 478.822 584.853 401.548 304.966C401.352 304.254 400.719 303.71 399.981 303.683C372.744 302.66 335.689 318.211 312.023 325.428C310.53 325.883 309.297 324.284 310.107 322.951Z" fill="white" stroke="white" stroke-width="27.6519" stroke-linecap="round" stroke-linejoin="round"/>
<path opacity="0.2" d="M350.719 303.412C370.202 271.362 404.243 219.416 412.718 185.417C412.893 184.711 412.7 183.959 412.24 183.395C205.449 -70.2874 -233.876 221.754 -53.4969 539.03C105.098 787.498 580.425 659.993 475.216 278.926C474.948 277.956 474.087 277.216 473.082 277.178C435.999 275.786 385.548 296.959 353.327 306.785C351.295 307.404 349.615 305.227 350.719 303.412Z" fill="white" stroke="white" stroke-width="37.6481" stroke-linecap="round" stroke-linejoin="round"/>
<path opacity="0.2" d="M290.882 331.713C302.74 312.207 323.458 280.591 328.616 259.898C328.723 259.469 328.605 259.011 328.325 258.668C202.468 104.272 -64.9141 282.014 44.8682 475.115C141.393 626.338 430.686 548.735 366.654 316.81C366.491 316.22 365.967 315.769 365.355 315.746C342.786 314.899 312.08 327.785 292.469 333.765C291.233 334.143 290.211 332.817 290.882 331.713Z" fill="white" stroke="white" stroke-width="22.9134" stroke-linecap="round" stroke-linejoin="round"/>
<path opacity="0.2" d="M265.483 343.639C274.183 329.327 289.384 306.131 293.169 290.948C293.247 290.633 293.161 290.297 292.956 290.045C200.612 176.763 4.43129 307.175 84.9798 448.855C155.801 559.809 368.059 502.871 321.077 332.705C320.958 332.272 320.574 331.941 320.125 331.924C303.565 331.303 281.036 340.757 266.648 345.145C265.74 345.422 264.99 344.45 265.483 343.639Z" fill="white" stroke="white" stroke-width="16.8118" stroke-linecap="round" stroke-linejoin="round"/>
</g>
<defs>
<clipPath id="clip0_274_1338">
<rect width="393" height="852" rx="24" fill="white"/>
</clipPath>
</defs>
</svg>
