<svg width="393" height="852" viewBox="0 0 393 852" fill="none" xmlns="http://www.w3.org/2000/svg">
<path d="M282.129 291.197C292.119 304.471 293.961 313.513 291.705 332.011" stroke="#F5F5F5" stroke-width="7.02641" stroke-linecap="round"/>
<path d="M271.272 302.722C277.403 308.879 281.912 309.424 290.897 307.823C297.691 302.67 299.736 299.287 301.041 292.614" stroke="#F5F5F5" stroke-width="7.02641" stroke-linecap="round"/>
<path d="M241.72 367.039C247.857 356.944 258.58 340.58 261.25 329.87C261.305 329.648 261.244 329.411 261.1 329.233C195.959 249.321 57.568 341.317 114.389 441.261C164.347 519.531 314.079 479.365 280.937 359.326C280.853 359.021 280.582 358.788 280.265 358.776C268.584 358.337 252.691 365.007 242.541 368.102C241.901 368.297 241.372 367.611 241.72 367.039Z" fill="#FAFAFA" stroke="#FAFAFA" stroke-width="11.8595" stroke-linecap="round" stroke-linejoin="round"/>
<path d="M185.926 557.635C170.537 528.174 175.413 455.072 185.264 419.443C187.374 411.81 202.144 412.257 200.711 416.408C185.052 467.216 213.241 521.53 234.371 546.467C237.751 555.529 193.444 569.517 185.926 557.635Z" fill="#29CC7B"/>
<circle cx="193.568" cy="395.365" r="40.4019" transform="rotate(19.0241 193.568 395.365)" fill="#FBF4C8"/>
<path d="M155.448 502.018C172.121 506.362 197.811 509.417 232.571 503.33C232.736 503.301 232.909 503.298 233.072 503.334C240.039 504.873 241.401 521.602 234.756 523.442C195.883 534.211 180.179 535.442 158.585 532.566C147.054 531.03 149.069 506.518 154.385 502.203C154.682 501.961 155.078 501.921 155.448 502.018Z" fill="#29CC7B"/>
<path d="M105.06 405.841C118.06 504.841 266.56 500.841 280.06 413.841C280.06 376.841 101.252 376.841 105.06 405.841Z" fill="#D9D9D9" fill-opacity="0.48"/>
<path d="M160 416.416C169.04 420.363 173.918 420.017 182.233 414.208" stroke="black" stroke-width="6.30724" stroke-linecap="round"/>
<path d="M204.15 414.208C213.191 418.155 218.069 417.809 226.383 412" stroke="black" stroke-width="6.30724" stroke-linecap="round"/>
<path d="M171.038 447.479C179.546 455.983 184.847 458.097 195.636 455.205" stroke="black" stroke-width="6.30724" stroke-linecap="round"/>
<path d="M193.748 489.608C195.291 488.145 197.709 488.145 199.252 489.608L212.166 501.847C214.79 504.334 213.03 508.75 209.414 508.75H183.586C179.97 508.75 178.21 504.334 180.834 501.847L193.748 489.608Z" fill="white"/>
</svg>
