<svg width="176" height="215" viewBox="0 0 176 215" fill="none" xmlns="http://www.w3.org/2000/svg">
<g clip-path="url(#clip0_517_3501)">
<g opacity="0.12">
<path fill-rule="evenodd" clip-rule="evenodd" d="M165.594 17.7627C164.436 14.6293 160.958 13.0276 157.824 14.1852C154.691 15.3428 153.089 18.8214 154.247 21.9548C156.132 27.0587 156.887 30.6777 156.764 34.3759C156.7 36.3201 156.388 38.4211 155.749 40.896C149.345 36.3528 141.955 32.6215 133.079 29.0913C129.975 27.8568 126.458 29.3722 125.224 32.4762C123.989 35.5801 125.504 39.0971 128.608 40.3316C137.166 43.7352 143.801 47.1633 149.313 51.1665C146.179 53.5382 143.592 55.0001 141.058 55.8321C137.432 57.0227 133.254 57.1272 126.641 55.5061C123.397 54.7107 120.122 56.6959 119.327 59.9403C118.531 63.1846 120.517 66.4595 123.761 67.2549C131.677 69.1956 138.322 69.4626 144.832 67.3252C149.646 65.7445 153.989 62.968 158.443 59.386C164.673 66.314 169.956 75.3912 175.966 88.6443C177.345 91.6866 180.93 93.0345 183.972 91.655C187.014 90.2755 188.362 86.691 186.983 83.6487C180.327 68.9715 174.031 58.08 165.755 49.4894C167.624 44.1322 168.7 39.4301 168.854 34.7781C169.05 28.9133 167.765 23.6395 165.594 17.7627Z" fill="black"/>
</g>
<path opacity="0.12" d="M-45.1166 190.823C-45.1013 190.85 -45.0854 190.876 -45.0688 190.902C-28.7306 216.499 3.79478 222.586 29.3802 212.709C42.2161 207.754 53.4294 198.748 60.075 186.04C66.7307 173.313 68.721 157.033 63.3837 137.701C63.1399 136.818 62.3416 136.067 61.2836 136.027C57.281 135.877 52.6875 136.938 48.4237 138.21C46.2716 138.852 44.1571 139.563 42.1985 140.229C41.9793 140.303 41.7624 140.377 41.5477 140.45C41.1385 140.589 40.7377 140.726 40.3455 140.858C41.9404 138.275 43.759 135.318 45.4353 132.352C47.8276 128.119 50.0539 123.658 50.9615 120.017C51.1456 119.278 50.9345 118.551 50.5135 118.035L49.1116 119.177L50.5135 118.035C29.1737 91.8559 -4.10398 93.9918 -27.1534 110.486C-50.2594 127.021 -63.605 158.303 -45.1166 190.823Z" fill="black" stroke="black" stroke-width="3.61733" stroke-linecap="round" stroke-linejoin="round"/>
</g>
<defs>
<clipPath id="clip0_517_3501">
<rect width="176" height="215" rx="24" fill="white"/>
</clipPath>
</defs>
</svg>
