<svg width="393" height="852" viewBox="0 0 393 852" fill="none" xmlns="http://www.w3.org/2000/svg">
<path d="M207.129 261.197C217.119 274.471 218.961 283.513 216.705 302.011" stroke="#F5F5F5" stroke-width="7.02641" stroke-linecap="round"/>
<path d="M196.272 272.722C202.403 278.879 206.912 279.424 215.897 277.823C222.691 272.67 224.736 269.287 226.041 262.614" stroke="#F5F5F5" stroke-width="7.02641" stroke-linecap="round"/>
<path d="M166.72 337.039C172.857 326.944 183.58 310.58 186.25 299.87C186.305 299.648 186.244 299.411 186.1 299.233C120.959 219.321 -17.432 311.317 39.3888 411.261C89.3475 489.531 239.079 449.365 205.937 329.326C205.853 329.021 205.582 328.788 205.265 328.776C193.584 328.337 177.691 335.007 167.541 338.102C166.901 338.297 166.372 337.611 166.72 337.039Z" fill="white" stroke="white" stroke-width="11.8595" stroke-linecap="round" stroke-linejoin="round"/>
<path d="M130.459 527.461C111.748 499.989 108.09 426.816 113.731 390.284C114.94 382.457 129.661 381.183 128.72 385.473C119.076 437.757 153.39 488.424 177.276 510.735C181.687 519.343 139.307 538.388 130.459 527.461Z" fill="#64C696"/>
<circle cx="119.179" cy="365.403" r="40.4019" transform="rotate(12.3462 119.179 365.403)" fill="#FBF4C8"/>
<path d="M93.7199 475.765C110.785 478.141 136.655 478.188 170.472 468.1C170.632 468.052 170.804 468.029 170.971 468.046C178.069 468.764 181.366 485.221 174.981 487.822C137.624 503.038 122.17 506.086 100.388 505.741C88.7568 505.556 87.9077 480.977 92.685 476.073C92.9523 475.798 93.3405 475.712 93.7199 475.765Z" fill="#64C696"/>
<path d="M38.2998 393.303C80.3574 483.864 220.841 435.566 207.661 348.517C196.578 313.216 25.9802 366.776 38.2998 393.303Z" fill="#D9D9D9" fill-opacity="0.48"/>
<path d="M129.399 361.368C138.44 365.316 143.318 364.969 151.632 359.16" stroke="black" stroke-width="6.30724" stroke-linecap="round"/>
<path d="M173.551 359.16C182.591 363.108 187.469 362.761 195.784 356.952" stroke="black" stroke-width="6.30724" stroke-linecap="round"/>
<path d="M140.438 392.431C148.946 400.935 154.247 403.05 165.036 400.157" stroke="black" stroke-width="6.30724" stroke-linecap="round"/>
<path d="M83.7485 489.608C85.2914 488.145 87.7086 488.145 89.2515 489.608L102.166 501.847C104.79 504.334 103.03 508.75 99.4141 508.75H73.5859C69.9703 508.75 68.2101 504.334 70.8344 501.847L83.7485 489.608Z" fill="white"/>
</svg>
