<svg width="48" height="48" viewBox="0 0 48 48" fill="none" xmlns="http://www.w3.org/2000/svg">
<path d="M35.889 18.4174C37.3671 15.9861 39.9495 12.0454 40.5924 9.46609C40.6057 9.41255 40.591 9.3555 40.5561 9.31273C24.8685 -9.93214 -8.45955 12.2227 5.22437 36.292C17.2557 55.1412 53.315 45.4684 45.3336 16.5599C45.3133 16.4863 45.248 16.4302 45.1717 16.4273C42.3586 16.3217 38.5313 17.9279 36.0868 18.6733C35.9327 18.7203 35.8053 18.5551 35.889 18.4174Z" fill="white" stroke="white" stroke-width="2.85607" stroke-linecap="round" stroke-linejoin="round"/>
<circle cx="11" cy="8" r="6" fill="#CC6672"/>
<path d="M16.3223 27.8945C14.916 27.8945 13.8385 27.5332 13.0898 26.8105C12.3411 26.0814 11.9668 25.0397 11.9668 23.6855V22.3477C11.9668 20.9935 12.3411 19.9551 13.0898 19.2324C13.8385 18.5033 14.916 18.1387 16.3223 18.1387H18.0996V27.8945H16.3223ZM19.6328 27.9043V18.1387C20.5182 18.041 21.5046 17.8685 22.5918 17.6211C23.679 17.3737 24.776 17.0645 25.8828 16.6934C26.9961 16.3158 28.028 15.8861 28.9785 15.4043C28.9785 15.4759 28.9753 15.5443 28.9688 15.6094C28.9688 15.6745 28.9688 15.7428 28.9688 15.8145V30.1895C28.9688 30.2611 28.9688 30.3359 28.9688 30.4141C28.9753 30.4857 28.9818 30.5573 28.9883 30.6289C27.9922 30.1341 26.9538 29.7044 25.873 29.3398C24.7988 28.9753 23.7279 28.6725 22.6602 28.4316C21.599 28.1908 20.5898 28.015 19.6328 27.9043ZM32.7383 32.8555C32.3021 32.8555 31.9082 32.7546 31.5566 32.5527C31.2116 32.3574 30.9382 32.084 30.7363 31.7324C30.541 31.3874 30.4434 30.9967 30.4434 30.5605V15.3848C30.4434 14.9486 30.541 14.5579 30.7363 14.2129C30.9382 13.8613 31.2116 13.5879 31.5566 13.3926C31.9082 13.1908 32.3021 13.0898 32.7383 13.0898C33.1745 13.0898 33.5651 13.1908 33.9102 13.3926C34.2552 13.5879 34.5254 13.8613 34.7207 14.2129C34.9225 14.5579 35.0234 14.9486 35.0234 15.3848V30.5605C35.0234 30.9967 34.9225 31.3874 34.7207 31.7324C34.5254 32.084 34.2552 32.3574 33.9102 32.5527C33.5651 32.7546 33.1745 32.8555 32.7383 32.8555ZM20.4531 34.8086C19.8086 34.8086 19.3008 34.6491 18.9297 34.3301C18.5651 34.0176 18.2396 33.5749 17.9531 33.002L16.127 29.3594C16.2441 29.3594 16.3548 29.3626 16.459 29.3691C16.5632 29.3691 16.6543 29.3691 16.7324 29.3691C18.015 29.3887 19.0501 29.4375 19.8379 29.5156C20.6257 29.5872 21.2995 29.6849 21.8594 29.8086L22.4258 32.1328C22.5625 32.6667 22.5527 33.1322 22.3965 33.5293C22.2467 33.9329 21.9961 34.2454 21.6445 34.4668C21.2995 34.6947 20.9023 34.8086 20.4531 34.8086Z" fill="#524A9F"/>
</svg>
